<?xml version="1.0" encoding="UTF-8"?>
<svg id="uuid-40b3913b-5148-49ec-9678-0f90a3966107" xmlns="http://www.w3.org/2000/svg" version="1.1" viewBox="0 0 512 512">
  <defs>
    <style>
      .cls-1 {
        fill: #ea1840;
        stroke-width: 0px;
      }
    </style>
  </defs>
  <path class="cls-1" d="M446.1,82.1v213.6c0,8.9-7.2,16.1-16.1,16.1h-102.1c-8.9,0-16.1,7.2-16.1,16.1v102.1c0,8.9-7.2,16.1-16.1,16.1H82.1c-14.4,0-21.5-17.4-11.4-27.5L418.6,70.7c10.2-10.2,27.5-3,27.5,11.4h0Z"/>
  <path class="cls-1" d="M237.8,142.8l-16.4-16.4v-23.2c0-8.9-7.2-16.1-16.1-16.1h-23.2l-16.4-16.4c-6.3-6.3-16.5-6.3-22.8,0l-16.4,16.4h-23.2c-8.9,0-16.1,7.2-16.1,16.1v23.2l-16.4,16.4c-6.3,6.3-6.3,16.5,0,22.8l16.4,16.4v23.2c0,8.9,7.2,16.1,16.1,16.1h23.2l16.4,16.4c6.3,6.3,16.5,6.3,22.8,0l16.4-16.4h23.2c8.9,0,16.1-7.2,16.1-16.1v-23.2l16.4-16.4c6.3-6.3,6.3-16.5,0-22.8Z"/>
</svg>